#!OML:ASF H:\Terrain\Patient Classification 1\Walking\liu\liu.ASF
:FULLY-SPECIFIED
:DEGREES
277
root -2.80723 15.7202 -37.1622 8.21494 19.2521 -3.40344
lowerback 15.329 2.44796 4.16762
upperback -3.3069 4.32768 1.77008
thorax -12.1279 1.81318 -1.50248
lowerneck -3.49218 10.3519 3.64147
upperneck 4.13554 14.0498 -7.09853
head 2.78576 6.88983 -2.35345
rclavicle 1.74931e-014 -1.19271e-014
rhumerus -35.5952 53.6883 -86.9993
rradius 66.1993
rwrist 0.00851355
rhand -6.2324 -32.3486
rfingers 7.12502
rthumb 19.6089 -61.3797
lclavicle 1.74931e-014 -1.19271e-014
lhumerus 10.8799 -66.525 76.0511
lradius 120.589
lwrist 0.781262
lhand -23.4986 42.0471
lfingers 7.12502
lthumb 2.96158 72.0063
rfemur -35.2089 -18.0093 16.9361
rtibia 61.878
rfoot -25.2885 -12.5628
rtoes -22.6599
lfemur -45.8752 21.1808 -17.4083
ltibia 79.0344
lfoot -18.1509 20.2927
ltoes -7.30202
278
root -2.77077 15.7043 -37.1705 8.34836 19.1896 -3.53198
lowerback 15.2754 2.52325 4.35487
upperback -3.33095 4.46573 1.78496
thorax -12.1048 1.86585 -1.62246
lowerneck -3.63244 10.4727 3.62583
upperneck 4.22072 14.2383 -7.40102
head 2.87914 6.9716 -2.42829
rclavicle 3.18055e-014 2.62396e-014
rhumerus -36.4265 55.561 -88.03
rradius 69.5117
rwrist -3.56487
rhand -6.4389 -31.7272
rfingers 7.12502
rthumb 19.4104 -60.7784
lclavicle 3.18055e-014 2.62396e-014
lhumerus 9.97922 -65.3121 75.3754
lradius 124.838
lwrist -0.622256
lhand -22.5995 43.3478
lfingers 7.12502
lthumb 3.82991 73.2931
rfemur -35.4693 -18.2219 16.9757
rtibia 61.9968
rfoot -25.3133 -12.3642
rtoes -23.1557
lfemur -45.2285 22.9855 -17.2937
ltibia 80.4208
lfoot -18.558 20.8864
ltoes -5.12516
279
root -2.73341 15.6883 -37.1709 8.50049 19.1782 -3.6095
lowerback 15.127 2.63159 4.50091
upperback -3.37028 4.62984 1.76119
thorax -12.0398 1.93362 -1.76259
lowerneck -3.60599 10.5267 3.75476
upperneck 4.21091 14.3264 -7.70643
head 2.91735 7.01117 -2.54543
rclavicle -1.60022e-014 -1.51076e-014
rhumerus -37.5679 56.9805 -89.283
rradius 73.0343
rwrist -7.23321
rhand -5.74293 -31.3731
rfingers 7.12502
rthumb 20.0795 -60.3555
lclavicle -1.60022e-014 -1.51076e-014
lhumerus 7.89969 -63.6206 75.4426
lradius 128.688
lwrist -1.1174
lhand -21.6714 43.918
lfingers 7.12502
lthumb 4.72609 73.8453
rfemur -35.6499 -18.4973 16.9556
rtibia 62.0638
rfoot -25.3475 -12.2059
rtoes -23.7457
lfemur -44.4676 24.7725 -17.2303
ltibia 81.4721
lfoot -18.2652 22.3267
ltoes -4.2415
280
root -2.69819 15.6757 -37.1666 8.63753 18.9545 -3.80679
lowerback 15.0367 2.80261 4.62566
upperback -3.43059 4.88336 1.77748
thorax -12.0328 2.04465 -1.87186
lowerneck -3.69964 10.582 3.82898
upperneck 4.25715 14.4152 -7.92789
head 2.98435 7.04811 -2.61844
rclavicle 3.51849e-014 2.06736e-014
rhumerus -38.866 57.8636 -90.608
rradius 76.6462
rwrist -10.8843
rhand -5.38742 -30.9956
rfingers 7.12502
rthumb 20.4211 -59.9418
lclavicle 3.51849e-014 2.06736e-014
lhumerus 4.79801 -60.9798 76.1824
lradius 131.954
lwrist -0.254256
lhand -19.9956 44.7148
lfingers 7.12502
lthumb 6.34402 74.5998
rfemur -35.8406 -18.4902 17.0504
rtibia 62.0528
rfoot -25.3498 -12.0505
rtoes -24.3338
lfemur -43.5571 26.8057 -16.9583
ltibia 82.2683
lfoot -18.8719 23.1403
ltoes -1.56195
281
root -2.65939 15.6692 -37.1538 8.79816 19.1514 -3.93866
lowerback 14.797 2.89686 4.77558
upperback -3.5043 5.02831 1.78144
thorax -11.9544 2.10534 -1.9726
lowerneck -3.64763 10.5871 3.98726
upperneck 4.23098 14.4249 -8.0882
head 2.99645 7.0536 -2.70025
rclavicle -4.50247e-014 -7.95139e-015
rhumerus -40.2184 58.0109 -91.8322
rradius 80.306
rwrist -14.8525
rhand -3.64915 -30.1861
rfingers 7.12502
rthumb 22.0908 -58.9442
lclavicle -4.50247e-014 -7.95139e-015
lhumerus 1.15835 -57.3822 77.2108
lradius 134.418
lwrist 2.81124
lhand -17.7855 45.5572
lfingers 7.12502
lthumb 8.47732 75.3671
rfemur -35.8412 -18.808 17.0784
rtibia 61.9564
rfoot -25.3842 -11.9876
rtoes -24.9335
lfemur -42.6071 28.4399 -16.7263
ltibia 82.6942
lfoot -19.6012 24.0294
ltoes 0.771132
